<?xml version="1.0" encoding="UTF-8" standalone="no"?>
<!-- Created with Inkscape (http://www.inkscape.org/) -->

<svg
   xmlns:dc="http://purl.org/dc/elements/1.1/"
   xmlns:cc="http://creativecommons.org/ns#"
   xmlns:rdf="http://www.w3.org/1999/02/22-rdf-syntax-ns#"
   xmlns:svg="http://www.w3.org/2000/svg"
   xmlns="http://www.w3.org/2000/svg"
   xmlns:xlink="http://www.w3.org/1999/xlink"
   xmlns:sodipodi="http://sodipodi.sourceforge.net/DTD/sodipodi-0.dtd"
   xmlns:inkscape="http://www.inkscape.org/namespaces/inkscape"
   width="30px"
   height="30px"
   version="1.1"
   id="svg8"
   inkscape:version="0.92.4 5da689c313, 2019-01-14"
   sodipodi:docname="container.svg">
  <defs
     id="defs2" />
  <sodipodi:namedview
     id="base"
     pagecolor="#ffffff"
     bordercolor="#666666"
     borderopacity="1.0"
     inkscape:pageopacity="0.0"
     inkscape:pageshadow="2"
     inkscape:zoom="13.049334"
     inkscape:cx="18.679046"
     inkscape:cy="12.165829"
     inkscape:document-units="px"
     inkscape:current-layer="layer1"
     showgrid="false"
     inkscape:snap-page="false"
     units="px"
     inkscape:window-width="1884"
     inkscape:window-height="1061"
     inkscape:window-x="0"
     inkscape:window-y="0"
     inkscape:window-maximized="1"
     fit-margin-top="0"
     fit-margin-left="0"
     fit-margin-right="0"
     fit-margin-bottom="0" />
  <metadata
     id="metadata5">
    <rdf:RDF>
      <cc:Work
         rdf:about="">
        <dc:format>image/svg+xml</dc:format>
        <dc:type
           rdf:resource="http://purl.org/dc/dcmitype/StillImage" />
        <dc:title></dc:title>
      </cc:Work>
    </rdf:RDF>
  </metadata>
    <circle
       style="color:#000000;clip-rule:nonzero;display:inline;overflow:visible;visibility:visible;opacity:1;isolation:auto;mix-blend-mode:normal;color-interpolation:sRGB;color-interpolation-filters:linearRGB;solid-color:#000000;solid-opacity:1;vector-effect:none;fill:#3366ff;fill-opacity:1;fill-rule:evenodd;stroke:#ffffff;stroke-width:1;stroke-linecap:butt;stroke-linejoin:miter;stroke-miterlimit:4;stroke-dasharray:none;stroke-dashoffset:0;stroke-opacity:1;marker:none;color-rendering:auto;image-rendering:auto;shape-rendering:auto;text-rendering:auto;enable-background:accumulate"
       id="path815"
       cx="15"
       cy="15"
       r="14.5" />
<g transform="translate(7.0,6.5)"><path fill-rule="nonzero" fill="#FFFFFF" fill-opacity="1" d="M 12.523438 9.714844 L 12.523438 8.914062 C 12.523438 8.40625 12.3125 8.117188 11.964844 7.953125 L 8.914062 10.4375 L 9.074219 7.75 L 8.515625 7.75 L 8.515625 6.839844 C 8.515625 6.242188 8.003906 5.757812 7.375 5.757812 L 5.042969 5.757812 C 4.410156 5.757812 3.902344 6.242188 3.898438 6.839844 L 3.898438 7.757812 L 2.597656 7.757812 C 1.085938 7.757812 0.00390625 7.621094 0.00390625 8.914062 L 0.00390625 10.144531 C 0.121094 10.632812 0.507812 10.796875 0.941406 11.097656 C 1.246094 11.289062 1.578125 11.449219 1.917969 11.570312 C 2.089844 11.628906 2.265625 11.675781 2.441406 11.707031 C 2.453125 11.707031 2.464844 11.710938 2.480469 11.710938 C 2.574219 11.710938 2.933594 11.714844 4.191406 11.71875 L 4.417969 11.71875 C 4.519531 11.714844 4.609375 11.789062 4.613281 11.886719 L 4.613281 12.105469 C 4.632812 12.53125 5 12.871094 5.453125 12.863281 L 6.875 12.863281 C 7.324219 12.871094 7.695312 12.535156 7.714844 12.109375 L 7.71875 11.898438 C 7.726562 11.796875 7.816406 11.722656 7.917969 11.726562 L 8.308594 11.726562 C 8.308594 11.726562 8.355469 11.730469 8.429688 11.730469 L 8.339844 12.402344 C 8.226562 12.976562 7.667969 13.410156 7 13.410156 L 5.457031 13.410156 C 4.789062 13.410156 4.230469 12.976562 4.117188 12.40625 C 4.101562 12.320312 4.015625 12.261719 3.921875 12.261719 C 3.03125 12.257812 2.535156 12.257812 2.441406 12.253906 L 2.402344 12.253906 L 2.367188 12.25 C 2.152344 12.214844 1.9375 12.160156 1.734375 12.09375 L 1.726562 12.089844 L 1.714844 12.089844 C 1.339844 11.949219 0.976562 11.769531 0.636719 11.5625 L 0.628906 11.550781 L 0.617188 11.546875 C 0.519531 11.480469 0.429688 11.414062 0.34375 11.339844 C 0.265625 11.273438 0 11.066406 0 11.066406 L 0 15.601562 C 0 16.992188 1.3125 17 2.929688 17 L 9.527344 17 C 11.144531 17 12.523438 16.992188 12.523438 15.601562 Z M 7.738281 7.757812 L 4.679688 7.757812 L 4.679688 6.839844 C 4.679688 6.652344 4.839844 6.496094 5.042969 6.496094 L 7.375 6.496094 C 7.570312 6.496094 7.738281 6.652344 7.738281 6.839844 Z M 7.738281 7.757812 "/>
<path fill-rule="nonzero" fill="#FFFFFF" fill-opacity="1" d="M 9.589844 9.046875 L 10.089844 0.644531 L 12.125 2.933594 L 13.875 0 L 14.980469 0.65625 L 13.292969 3.480469 L 16.214844 3.65625 Z M 9.589844 9.046875 "/>
</g>
</svg>
