<?xml version="1.0" encoding="UTF-8"?>
<svg xmlns="http://www.w3.org/2000/svg" xmlns:xlink="http://www.w3.org/1999/xlink" width="10.49171" height="11" viewBox="0 0 10.49171 11">
<path fill-rule="nonzero" fill="rgb(30%,30%,30%)" fill-opacity="1" d="M 8.105469 6.285156 L 8.101562 6.285156 L 8.101562 5.765625 C 8.101562 5.4375 7.964844 5.253906 7.742188 5.148438 L 5.765625 6.753906 L 5.871094 5.015625 L 5.507812 5.015625 L 5.507812 4.425781 C 5.507812 4.039062 5.179688 3.726562 4.773438 3.726562 L 3.261719 3.726562 C 2.851562 3.726562 2.523438 4.039062 2.523438 4.425781 L 2.523438 5.019531 L 1.683594 5.019531 C 0.703125 5.019531 0 4.933594 0 5.765625 L 0 6.5625 C 0.078125 6.878906 0.328125 6.988281 0.609375 7.179688 C 0.808594 7.304688 1.019531 7.40625 1.242188 7.488281 C 1.351562 7.523438 1.464844 7.554688 1.578125 7.574219 C 1.585938 7.574219 1.597656 7.578125 1.605469 7.578125 C 1.664062 7.578125 1.898438 7.578125 2.710938 7.582031 L 2.859375 7.582031 C 2.925781 7.578125 2.984375 7.628906 2.984375 7.691406 L 2.984375 7.832031 C 2.996094 8.109375 3.234375 8.328125 3.53125 8.324219 L 4.449219 8.324219 C 4.738281 8.328125 4.980469 8.113281 4.992188 7.835938 L 4.996094 7.699219 C 5 7.632812 5.058594 7.585938 5.125 7.589844 L 5.378906 7.589844 C 5.378906 7.589844 5.40625 7.589844 5.453125 7.589844 L 5.394531 8.023438 C 5.324219 8.394531 4.960938 8.675781 4.53125 8.675781 L 3.53125 8.675781 C 3.097656 8.675781 2.738281 8.394531 2.664062 8.027344 C 2.652344 7.972656 2.597656 7.933594 2.539062 7.933594 C 1.960938 7.933594 1.640625 7.933594 1.578125 7.929688 L 1.554688 7.929688 L 1.53125 7.925781 C 1.394531 7.902344 1.253906 7.867188 1.121094 7.824219 L 1.109375 7.824219 C 0.867188 7.730469 0.632812 7.617188 0.410156 7.480469 L 0.40625 7.476562 L 0.398438 7.472656 C 0.335938 7.429688 0.277344 7.386719 0.222656 7.335938 C 0.171875 7.292969 0 7.160156 0 7.160156 L 0 10.097656 C 0 10.996094 0.847656 11 1.894531 11 L 6.164062 11 C 7.210938 11 8.105469 10.996094 8.105469 10.097656 Z M 5.007812 5.019531 L 3.027344 5.019531 L 3.027344 4.425781 C 3.027344 4.304688 3.132812 4.203125 3.261719 4.203125 L 4.773438 4.203125 C 4.898438 4.203125 5.007812 4.304688 5.007812 4.425781 Z M 5.007812 5.019531 "/>
<path fill-rule="nonzero" fill="rgb(30%,30%,30%)" fill-opacity="1" d="M 6.207031 5.851562 L 6.527344 0.417969 L 7.84375 1.898438 L 8.976562 0 L 9.691406 0.425781 L 8.601562 2.253906 L 10.492188 2.367188 Z M 6.207031 5.851562 "/>
</svg>
