<?xml version="1.0" encoding="UTF-8" standalone="no"?>
<!-- Created with Inkscape (http://www.inkscape.org/) -->

<svg
   xmlns:dc="http://purl.org/dc/elements/1.1/"
   xmlns:cc="http://creativecommons.org/ns#"
   xmlns:rdf="http://www.w3.org/1999/02/22-rdf-syntax-ns#"
   xmlns:svg="http://www.w3.org/2000/svg"
   xmlns="http://www.w3.org/2000/svg"
   xmlns:xlink="http://www.w3.org/1999/xlink"
   xmlns:sodipodi="http://sodipodi.sourceforge.net/DTD/sodipodi-0.dtd"
   xmlns:inkscape="http://www.inkscape.org/namespaces/inkscape"
   width="30px"
   height="30px"
   version="1.1"
   id="svg8"
   inkscape:version="0.92.4 5da689c313, 2019-01-14"
   sodipodi:docname="container.svg">
  <defs
     id="defs2" />
  <sodipodi:namedview
     id="base"
     pagecolor="#ffffff"
     bordercolor="#666666"
     borderopacity="1.0"
     inkscape:pageopacity="0.0"
     inkscape:pageshadow="2"
     inkscape:zoom="13.049334"
     inkscape:cx="18.679046"
     inkscape:cy="12.165829"
     inkscape:document-units="px"
     inkscape:current-layer="layer1"
     showgrid="false"
     inkscape:snap-page="false"
     units="px"
     inkscape:window-width="1884"
     inkscape:window-height="1061"
     inkscape:window-x="0"
     inkscape:window-y="0"
     inkscape:window-maximized="1"
     fit-margin-top="0"
     fit-margin-left="0"
     fit-margin-right="0"
     fit-margin-bottom="0" />
  <metadata
     id="metadata5">
    <rdf:RDF>
      <cc:Work
         rdf:about="">
        <dc:format>image/svg+xml</dc:format>
        <dc:type
           rdf:resource="http://purl.org/dc/dcmitype/StillImage" />
        <dc:title></dc:title>
      </cc:Work>
    </rdf:RDF>
  </metadata>
    <circle
       style="color:#000000;clip-rule:nonzero;display:inline;overflow:visible;visibility:visible;opacity:1;isolation:auto;mix-blend-mode:normal;color-interpolation:sRGB;color-interpolation-filters:linearRGB;solid-color:#000000;solid-opacity:1;vector-effect:none;fill:#ffffff;fill-opacity:1;fill-rule:evenodd;stroke:#e42224;stroke-width:1;stroke-linecap:butt;stroke-linejoin:miter;stroke-miterlimit:4;stroke-dasharray:none;stroke-dashoffset:0;stroke-opacity:1;marker:none;color-rendering:auto;image-rendering:auto;shape-rendering:auto;text-rendering:auto;enable-background:accumulate"
       id="path815"
       cx="15"
       cy="15"
       r="14.5" />
<g transform="translate(6.5,6.5)"><path fill-rule="nonzero" fill="rgb(30%,30%,30%)" fill-opacity="1" d="M 12.082031 0 C 9.367188 0 7.167969 1.703125 7.167969 3.804688 C 7.167969 4.828125 7.691406 5.757812 8.539062 6.441406 C 8.753906 6.613281 8.820312 6.914062 8.695312 7.160156 L 7.519531 8.726562 C 7.515625 8.734375 8.019531 8.480469 8.023438 8.476562 L 9.917969 7.46875 C 10.09375 7.375 10.296875 7.351562 10.484375 7.402344 C 10.988281 7.539062 11.523438 7.609375 12.082031 7.609375 C 14.800781 7.609375 17 5.90625 17 3.804688 C 17 1.703125 14.800781 0 12.082031 0 Z M 10.746094 6.496094 L 9.269531 6.496094 L 9.269531 5.191406 L 10.746094 5.191406 Z M 10.796875 2.378906 L 10.492188 4.820312 L 9.515625 4.820312 L 9.214844 2.378906 L 9.214844 1.160156 L 10.796875 1.160156 Z M 14.152344 6.496094 L 12.671875 6.496094 L 12.671875 5.191406 L 14.152344 5.191406 Z M 15.363281 3.191406 C 15.246094 3.382812 15.015625 3.617188 14.664062 3.894531 C 14.417969 4.089844 14.261719 4.246094 14.199219 4.363281 C 14.132812 4.480469 14.101562 4.632812 14.101562 4.824219 L 12.71875 4.824219 L 12.71875 4.683594 C 12.71875 4.449219 12.746094 4.257812 12.800781 4.113281 C 12.851562 3.964844 12.933594 3.832031 13.039062 3.710938 C 13.144531 3.589844 13.378906 3.375 13.75 3.070312 C 13.945312 2.910156 14.042969 2.761719 14.042969 2.628906 C 14.042969 2.496094 14.003906 2.390625 13.925781 2.316406 C 13.847656 2.242188 13.726562 2.207031 13.566406 2.207031 C 13.394531 2.207031 13.253906 2.261719 13.140625 2.378906 C 13.027344 2.492188 12.953125 2.691406 12.921875 2.972656 L 11.511719 2.800781 C 11.558594 2.28125 11.75 1.863281 12.078125 1.546875 C 12.40625 1.230469 12.910156 1.070312 13.589844 1.070312 C 14.117188 1.070312 14.546875 1.179688 14.871094 1.402344 C 15.3125 1.699219 15.53125 2.097656 15.53125 2.597656 C 15.53125 2.800781 15.476562 3 15.363281 3.191406 Z M 15.363281 3.191406 "/>
<path fill-rule="nonzero" fill="rgb(30%,30%,30%)" fill-opacity="1" d="M 8.765625 12.53125 C 8.765625 14.953125 6.800781 16.914062 4.382812 16.914062 C 1.960938 16.914062 0 14.953125 0 12.53125 C 0 10.113281 1.960938 8.152344 4.382812 8.152344 C 6.800781 8.152344 8.765625 10.113281 8.765625 12.53125 Z M 8.765625 12.53125 "/>
</g>
</svg>
