<?xml version="1.0" encoding="UTF-8" standalone="no"?>
<!-- Created with Inkscape (http://www.inkscape.org/) -->

<svg
   xmlns:dc="http://purl.org/dc/elements/1.1/"
   xmlns:cc="http://creativecommons.org/ns#"
   xmlns:rdf="http://www.w3.org/1999/02/22-rdf-syntax-ns#"
   xmlns:svg="http://www.w3.org/2000/svg"
   xmlns="http://www.w3.org/2000/svg"
   xmlns:xlink="http://www.w3.org/1999/xlink"
   xmlns:sodipodi="http://sodipodi.sourceforge.net/DTD/sodipodi-0.dtd"
   xmlns:inkscape="http://www.inkscape.org/namespaces/inkscape"
   width="30px"
   height="30px"
   version="1.1"
   id="svg8"
   inkscape:version="0.92.4 5da689c313, 2019-01-14"
   sodipodi:docname="container.svg">
  <defs
     id="defs2" />
  <sodipodi:namedview
     id="base"
     pagecolor="#ffffff"
     bordercolor="#666666"
     borderopacity="1.0"
     inkscape:pageopacity="0.0"
     inkscape:pageshadow="2"
     inkscape:zoom="13.049334"
     inkscape:cx="18.679046"
     inkscape:cy="12.165829"
     inkscape:document-units="px"
     inkscape:current-layer="layer1"
     showgrid="false"
     inkscape:snap-page="false"
     units="px"
     inkscape:window-width="1884"
     inkscape:window-height="1061"
     inkscape:window-x="0"
     inkscape:window-y="0"
     inkscape:window-maximized="1"
     fit-margin-top="0"
     fit-margin-left="0"
     fit-margin-right="0"
     fit-margin-bottom="0" />
  <metadata
     id="metadata5">
    <rdf:RDF>
      <cc:Work
         rdf:about="">
        <dc:format>image/svg+xml</dc:format>
        <dc:type
           rdf:resource="http://purl.org/dc/dcmitype/StillImage" />
        <dc:title></dc:title>
      </cc:Work>
    </rdf:RDF>
  </metadata>
    <circle
       style="color:#000000;clip-rule:nonzero;display:inline;overflow:visible;visibility:visible;opacity:1;isolation:auto;mix-blend-mode:normal;color-interpolation:sRGB;color-interpolation-filters:linearRGB;solid-color:#000000;solid-opacity:1;vector-effect:none;fill:#e42224;fill-opacity:1;fill-rule:evenodd;stroke:#ffffff;stroke-width:1;stroke-linecap:butt;stroke-linejoin:miter;stroke-miterlimit:4;stroke-dasharray:none;stroke-dashoffset:0;stroke-opacity:1;marker:none;color-rendering:auto;image-rendering:auto;shape-rendering:auto;text-rendering:auto;enable-background:accumulate"
       id="path815"
       cx="15"
       cy="15"
       r="14.5" />
<g transform="translate(6.5,9.0)"><path fill-rule="nonzero" fill="#FFFFFF" fill-opacity="1" d="M 10.953125 5.476562 C 10.953125 8.5 8.5 10.953125 5.476562 10.953125 C 2.453125 10.953125 0 8.5 0 5.476562 C 0 2.453125 2.453125 0 5.476562 0 C 8.5 0 10.953125 2.453125 10.953125 5.476562 Z M 10.953125 5.476562 "/>
<path fill-rule="nonzero" fill="#FFFFFF" fill-opacity="1" d="M 14.835938 11.585938 C 14.714844 11.585938 14.59375 11.539062 14.5 11.445312 C 14.316406 11.257812 14.316406 10.957031 14.5 10.773438 C 15.5 9.773438 16.050781 8.445312 16.050781 7.03125 C 16.050781 6.273438 15.890625 5.539062 15.582031 4.855469 C 15.28125 4.191406 14.855469 3.605469 14.3125 3.117188 C 14.121094 2.9375 14.105469 2.636719 14.28125 2.445312 C 14.457031 2.25 14.757812 2.234375 14.953125 2.410156 C 15.589844 2.992188 16.09375 3.679688 16.449219 4.464844 C 16.8125 5.273438 17 6.136719 17 7.03125 C 17 7.875 16.835938 8.691406 16.507812 9.460938 C 16.195312 10.203125 15.746094 10.871094 15.171875 11.445312 C 15.078125 11.539062 14.957031 11.585938 14.835938 11.585938 Z M 14.835938 11.585938 "/>
<path fill-rule="nonzero" fill="#FFFFFF" fill-opacity="1" d="M 13.519531 10.332031 C 13.398438 10.332031 13.277344 10.285156 13.183594 10.191406 C 13 10.007812 13 9.707031 13.183594 9.519531 C 13.855469 8.847656 14.226562 7.953125 14.226562 7.003906 C 14.226562 6.003906 13.800781 5.042969 13.058594 4.367188 C 12.863281 4.191406 12.847656 3.890625 13.027344 3.695312 C 13.203125 3.5 13.503906 3.488281 13.699219 3.664062 C 14.160156 4.082031 14.523438 4.582031 14.777344 5.144531 C 15.042969 5.730469 15.175781 6.355469 15.175781 7.003906 C 15.175781 8.207031 14.707031 9.339844 13.855469 10.191406 C 13.761719 10.285156 13.640625 10.332031 13.519531 10.332031 Z M 13.519531 10.332031 "/>
<path fill-rule="nonzero" fill="#FFFFFF" fill-opacity="1" d="M 12.195312 8.871094 C 12.074219 8.871094 11.949219 8.824219 11.859375 8.734375 C 11.671875 8.546875 11.671875 8.246094 11.859375 8.058594 C 12.148438 7.769531 12.308594 7.382812 12.308594 6.96875 C 12.308594 6.535156 12.125 6.121094 11.804688 5.828125 C 11.609375 5.652344 11.59375 5.351562 11.769531 5.15625 C 11.949219 4.960938 12.246094 4.949219 12.441406 5.125 C 12.960938 5.59375 13.261719 6.269531 13.261719 6.96875 C 13.261719 7.636719 13 8.261719 12.53125 8.734375 C 12.4375 8.824219 12.316406 8.871094 12.195312 8.871094 Z M 12.195312 8.871094 "/>
</g>
</svg>
