<?xml version="1.0" encoding="UTF-8"?>
<svg xmlns="http://www.w3.org/2000/svg" xmlns:xlink="http://www.w3.org/1999/xlink" width="11" height="10.944851" viewBox="0 0 11 10.944851">
<path fill-rule="nonzero" fill="rgb(30%,30%,30%)" fill-opacity="1" d="M 7.820312 0 C 6.0625 0 4.636719 1.101562 4.636719 2.460938 C 4.636719 3.125 4.976562 3.726562 5.527344 4.167969 C 5.664062 4.28125 5.707031 4.472656 5.625 4.632812 L 4.863281 5.648438 C 4.863281 5.652344 5.1875 5.488281 5.191406 5.484375 L 6.417969 4.832031 C 6.53125 4.773438 6.660156 4.757812 6.785156 4.789062 C 7.109375 4.878906 7.457031 4.925781 7.820312 4.925781 C 9.574219 4.925781 11 3.820312 11 2.460938 C 11 1.101562 9.574219 0 7.820312 0 Z M 6.953125 4.203125 L 6 4.203125 L 6 3.359375 L 6.953125 3.359375 Z M 6.988281 1.539062 L 6.789062 3.117188 L 6.15625 3.117188 L 5.964844 1.539062 L 5.964844 0.75 L 6.988281 0.75 Z M 9.15625 4.203125 L 8.199219 4.203125 L 8.199219 3.359375 L 9.15625 3.359375 Z M 9.941406 2.066406 C 9.867188 2.191406 9.714844 2.339844 9.488281 2.519531 C 9.328125 2.644531 9.230469 2.746094 9.1875 2.824219 C 9.144531 2.898438 9.125 3 9.125 3.121094 L 8.230469 3.121094 L 8.230469 3.03125 C 8.230469 2.878906 8.246094 2.753906 8.28125 2.660156 C 8.316406 2.566406 8.367188 2.480469 8.4375 2.398438 C 8.503906 2.320312 8.65625 2.183594 8.898438 1.984375 C 9.023438 1.882812 9.085938 1.789062 9.085938 1.699219 C 9.085938 1.613281 9.0625 1.546875 9.011719 1.5 C 8.960938 1.453125 8.882812 1.425781 8.777344 1.425781 C 8.667969 1.425781 8.574219 1.464844 8.503906 1.539062 C 8.429688 1.613281 8.382812 1.742188 8.363281 1.925781 L 7.449219 1.8125 C 7.480469 1.476562 7.601562 1.207031 7.816406 1 C 8.027344 0.796875 8.355469 0.691406 8.792969 0.691406 C 9.136719 0.691406 9.410156 0.765625 9.621094 0.90625 C 9.90625 1.101562 10.050781 1.359375 10.050781 1.679688 C 10.050781 1.8125 10.015625 1.941406 9.941406 2.066406 Z M 9.941406 2.066406 "/>
<path fill-rule="nonzero" fill="rgb(30%,30%,30%)" fill-opacity="1" d="M 5.671875 8.109375 C 5.671875 9.675781 4.402344 10.945312 2.835938 10.945312 C 1.269531 10.945312 0 9.675781 0 8.109375 C 0 6.542969 1.269531 5.273438 2.835938 5.273438 C 4.402344 5.273438 5.671875 6.542969 5.671875 8.109375 Z M 5.671875 8.109375 "/>
</svg>
