<?xml version="1.0" encoding="UTF-8"?>
<svg xmlns="http://www.w3.org/2000/svg" xmlns:xlink="http://www.w3.org/1999/xlink" width="11" height="7.495542" viewBox="0 0 11 7.495542">
<path fill-rule="nonzero" fill="rgb(30%,30%,30%)" fill-opacity="1" d="M 7.085938 3.542969 C 7.085938 5.5 5.5 7.085938 3.542969 7.085938 C 1.585938 7.085938 0 5.5 0 3.542969 C 0 1.585938 1.585938 0 3.542969 0 C 5.5 0 7.085938 1.585938 7.085938 3.542969 Z M 7.085938 3.542969 "/>
<path fill-rule="nonzero" fill="rgb(30%,30%,30%)" fill-opacity="1" d="M 9.601562 7.496094 C 9.519531 7.496094 9.441406 7.464844 9.382812 7.40625 C 9.261719 7.285156 9.261719 7.089844 9.382812 6.96875 C 10.027344 6.324219 10.386719 5.464844 10.386719 4.550781 C 10.386719 4.058594 10.28125 3.585938 10.082031 3.140625 C 9.886719 2.710938 9.613281 2.332031 9.261719 2.015625 C 9.136719 1.902344 9.125 1.707031 9.242188 1.582031 C 9.355469 1.457031 9.550781 1.445312 9.675781 1.558594 C 10.089844 1.933594 10.414062 2.382812 10.644531 2.886719 C 10.878906 3.410156 11 3.972656 11 4.550781 C 11 5.09375 10.894531 5.625 10.683594 6.121094 C 10.480469 6.601562 10.1875 7.035156 9.816406 7.40625 C 9.757812 7.464844 9.679688 7.496094 9.601562 7.496094 Z M 9.601562 7.496094 "/>
<path fill-rule="nonzero" fill="rgb(30%,30%,30%)" fill-opacity="1" d="M 8.75 6.6875 C 8.667969 6.6875 8.589844 6.65625 8.53125 6.59375 C 8.410156 6.476562 8.410156 6.28125 8.53125 6.160156 C 8.964844 5.726562 9.207031 5.148438 9.207031 4.53125 C 9.207031 3.882812 8.929688 3.261719 8.449219 2.824219 C 8.324219 2.710938 8.3125 2.515625 8.429688 2.390625 C 8.542969 2.265625 8.738281 2.257812 8.863281 2.371094 C 9.160156 2.640625 9.398438 2.964844 9.5625 3.328125 C 9.734375 3.707031 9.820312 4.113281 9.820312 4.53125 C 9.820312 5.3125 9.515625 6.042969 8.964844 6.59375 C 8.90625 6.65625 8.828125 6.6875 8.75 6.6875 Z M 8.75 6.6875 "/>
<path fill-rule="nonzero" fill="rgb(30%,30%,30%)" fill-opacity="1" d="M 7.890625 5.742188 C 7.8125 5.742188 7.734375 5.710938 7.671875 5.652344 C 7.550781 5.53125 7.550781 5.335938 7.671875 5.214844 C 7.859375 5.027344 7.964844 4.777344 7.964844 4.511719 C 7.964844 4.230469 7.84375 3.960938 7.636719 3.769531 C 7.511719 3.65625 7.503906 3.460938 7.617188 3.335938 C 7.730469 3.210938 7.925781 3.203125 8.050781 3.316406 C 8.386719 3.621094 8.582031 4.054688 8.582031 4.511719 C 8.582031 4.941406 8.414062 5.347656 8.109375 5.652344 C 8.046875 5.710938 7.96875 5.742188 7.890625 5.742188 Z M 7.890625 5.742188 "/>
</svg>
