<?xml version="1.0" encoding="UTF-8"?>
<svg xmlns="http://www.w3.org/2000/svg" xmlns:xlink="http://www.w3.org/1999/xlink" width="10.568985" height="11" viewBox="0 0 10.568985 11">
<path fill-rule="evenodd" fill="rgb(30%,30%,30%)" fill-opacity="1" d="M 10.546875 8.449219 C 10.488281 8.269531 10.242188 8.171875 9.964844 8.203125 C 9.894531 8.21875 9.804688 8.234375 9.734375 8.253906 C 9.382812 8.386719 7.609375 9.0625 7.59375 9.082031 L 7.550781 9.097656 L 7.578125 9.128906 C 7.78125 9.3125 7.882812 9.511719 7.828125 9.675781 C 7.769531 9.941406 7.476562 10.089844 7.011719 10.121094 C 6.574219 10.171875 6.050781 10.121094 5.425781 9.992188 C 5.484375 9.992188 5.570312 9.992188 5.644531 10.007812 C 6.09375 10.007812 6.515625 10.007812 6.851562 9.972656 C 7.359375 9.925781 7.609375 9.792969 7.636719 9.578125 C 7.652344 9.429688 7.578125 9.3125 7.402344 9.210938 C 7.214844 9.097656 6.808594 9.046875 6.429688 8.964844 C 6.152344 8.914062 5.917969 8.882812 5.730469 8.832031 C 5.121094 8.648438 4.492188 8.46875 3.75 8.535156 C 3.636719 8.550781 3.519531 8.550781 3.402344 8.582031 C 2.847656 8.699219 2.296875 8.847656 1.714844 9.03125 L 1.640625 9.046875 L 2.5 10.4375 C 2.644531 10.402344 2.804688 10.371094 2.964844 10.355469 C 3.167969 10.335938 3.359375 10.335938 3.53125 10.371094 C 3.765625 10.421875 4.363281 10.554688 4.929688 10.6875 C 5.511719 10.835938 6.082031 10.949219 6.285156 10.984375 C 6.414062 11 6.53125 11 6.648438 11 C 6.9375 10.964844 7.230469 10.785156 7.507812 10.621094 C 7.59375 10.554688 7.679688 10.519531 7.769531 10.453125 L 10.300781 8.898438 C 10.589844 8.699219 10.589844 8.535156 10.546875 8.449219 Z M 10.546875 8.449219 "/>
<path fill-rule="evenodd" fill="rgb(30%,30%,30%)" fill-opacity="1" d="M 0.0546875 8.949219 L 1.175781 8.949219 C 1.234375 8.949219 1.304688 8.996094 1.335938 9.046875 L 2.414062 10.816406 C 2.457031 10.867188 2.441406 10.917969 2.382812 10.917969 L 1.25 10.917969 C 1.203125 10.917969 1.132812 10.867188 1.101562 10.816406 L 0.0234375 9.046875 C -0.0195312 8.996094 -0.00390625 8.949219 0.0546875 8.949219 Z M 0.0546875 8.949219 "/>
<path fill-rule="evenodd" fill="rgb(30%,30%,30%)" fill-opacity="1" d="M 2.960938 3.375 C 3.28125 3.390625 3.574219 3.699219 3.558594 4.035156 C 3.527344 4.34375 3.234375 4.617188 2.929688 4.605469 C 2.589844 4.589844 2.332031 4.3125 2.347656 3.945312 C 2.375 3.621094 2.636719 3.359375 2.960938 3.375 Z M 2.960938 3.375 "/>
<path fill-rule="evenodd" fill="rgb(30%,30%,30%)" fill-opacity="1" d="M 7.058594 0.84375 C 7.058594 1.304688 6.6875 1.65625 6.226562 1.65625 C 5.753906 1.65625 5.382812 1.273438 5.398438 0.796875 C 5.414062 0.324219 5.78125 -0.015625 6.257812 0 C 6.703125 0 7.070312 0.382812 7.058594 0.84375 Z M 7.058594 0.84375 "/>
<path fill-rule="evenodd" fill="rgb(30%,30%,30%)" fill-opacity="1" d="M 5.152344 3.285156 C 5.078125 3.390625 5 3.5 4.953125 3.605469 C 4.664062 4.203125 4.203125 4.679688 3.742188 5.140625 C 3.605469 5.277344 3.558594 5.402344 3.558594 5.585938 L 3.558594 8.011719 C 3.558594 8.179688 3.574219 8.363281 3.34375 8.378906 C 3.113281 8.378906 3.050781 8.226562 3.066406 8.027344 C 3.066406 7.625 3.082031 7.226562 3.066406 6.828125 C 3.066406 6.738281 3.128906 6.535156 2.945312 6.535156 C 2.777344 6.535156 2.835938 6.707031 2.835938 6.8125 C 2.820312 7.195312 2.835938 7.59375 2.835938 7.964844 C 2.835938 8.164062 2.851562 8.378906 2.578125 8.378906 C 2.316406 8.363281 2.347656 8.164062 2.347656 7.996094 L 2.347656 5.785156 C 2.347656 5.664062 2.390625 5.539062 2.191406 5.324219 C 2.191406 5.679688 2.207031 5.9375 2.191406 6.183594 C 2.191406 6.335938 2.222656 6.507812 1.992188 6.507812 C 1.792969 6.507812 1.808594 6.335938 1.808594 6.199219 C 1.808594 5.921875 1.808594 5.632812 1.824219 5.339844 C 1.824219 5.035156 1.976562 4.863281 2.300781 4.878906 C 2.5625 4.894531 2.835938 4.878906 3.082031 4.878906 C 3.558594 4.878906 3.742188 4.710938 3.957031 4.28125 C 4.355469 3.5 4.800781 2.746094 5.339844 2.042969 C 5.492188 1.839844 5.691406 1.703125 5.96875 1.949219 C 6.121094 2.085938 6.367188 2.070312 6.519531 1.933594 C 6.734375 1.734375 6.886719 1.828125 7.058594 1.980469 C 7.285156 2.195312 7.441406 2.472656 7.59375 2.730469 C 7.855469 3.144531 8.101562 3.558594 8.359375 3.976562 C 8.484375 4.175781 8.636719 4.40625 8.359375 4.558594 C 8.128906 4.710938 8.023438 4.433594 7.929688 4.28125 C 7.714844 3.945312 7.515625 3.605469 7.242188 3.300781 C 7.394531 3.820312 7.5625 4.359375 7.714844 4.894531 C 7.855469 5.371094 7.792969 5.480469 7.285156 5.464844 C 7.027344 5.449219 6.980469 5.554688 6.980469 5.785156 C 6.996094 6.460938 6.980469 7.152344 6.996094 7.839844 C 6.996094 8.085938 6.996094 8.363281 6.671875 8.363281 C 6.367188 8.363281 6.382812 8.085938 6.382812 7.855469 C 6.382812 7.179688 6.382812 6.523438 6.367188 5.847656 C 6.367188 5.722656 6.472656 5.492188 6.242188 5.480469 C 5.984375 5.480469 6.089844 5.707031 6.089844 5.832031 L 6.089844 7.917969 C 6.089844 8.117188 6.058594 8.316406 5.84375 8.363281 C 5.554688 8.425781 5.476562 8.195312 5.476562 7.964844 C 5.476562 7.257812 5.460938 6.550781 5.476562 5.832031 C 5.492188 5.554688 5.414062 5.449219 5.109375 5.464844 C 4.695312 5.480469 4.617188 5.355469 4.726562 4.972656 C 4.878906 4.417969 5.046875 3.882812 5.199219 3.332031 C 5.183594 3.316406 5.167969 3.316406 5.152344 3.285156 Z M 5.152344 3.285156 "/>
</svg>
