<?xml version="1.0" encoding="UTF-8"?>
<svg xmlns="http://www.w3.org/2000/svg" xmlns:xlink="http://www.w3.org/1999/xlink" width="11" height="10.079304" viewBox="0 0 11 10.079304">
<path fill-rule="evenodd" fill="rgb(30%,30%,30%)" fill-opacity="1" d="M 10.976562 7.425781 C 10.917969 7.238281 10.660156 7.132812 10.371094 7.167969 C 10.296875 7.1875 10.207031 7.203125 10.128906 7.21875 C 9.765625 7.359375 7.917969 8.0625 7.902344 8.082031 L 7.859375 8.097656 L 7.886719 8.132812 C 8.101562 8.324219 8.207031 8.527344 8.144531 8.699219 C 8.085938 8.976562 7.78125 9.132812 7.296875 9.167969 C 6.84375 9.21875 6.296875 9.167969 5.644531 9.027344 C 5.707031 9.027344 5.796875 9.027344 5.875 9.046875 C 6.34375 9.046875 6.78125 9.046875 7.128906 9.011719 C 7.660156 8.960938 7.917969 8.820312 7.949219 8.597656 C 7.964844 8.441406 7.886719 8.324219 7.707031 8.21875 C 7.507812 8.097656 7.085938 8.046875 6.691406 7.960938 C 6.402344 7.910156 6.160156 7.875 5.964844 7.824219 C 5.328125 7.632812 4.675781 7.445312 3.902344 7.511719 C 3.78125 7.53125 3.664062 7.53125 3.539062 7.566406 C 2.964844 7.683594 2.390625 7.839844 1.785156 8.03125 L 1.707031 8.046875 L 2.601562 9.492188 C 2.753906 9.460938 2.917969 9.425781 3.085938 9.40625 C 3.296875 9.390625 3.496094 9.390625 3.675781 9.425781 C 3.917969 9.476562 4.539062 9.613281 5.132812 9.753906 C 5.738281 9.90625 6.328125 10.027344 6.539062 10.0625 C 6.675781 10.078125 6.796875 10.078125 6.917969 10.078125 C 7.222656 10.042969 7.523438 9.855469 7.8125 9.683594 C 7.902344 9.613281 7.992188 9.578125 8.085938 9.511719 L 10.71875 7.890625 C 11.023438 7.683594 11.023438 7.511719 10.976562 7.425781 Z M 10.976562 7.425781 "/>
<path fill-rule="evenodd" fill="rgb(30%,30%,30%)" fill-opacity="1" d="M 0.0585938 7.945312 L 1.222656 7.945312 C 1.285156 7.945312 1.359375 7.996094 1.390625 8.046875 L 2.511719 9.890625 C 2.554688 9.941406 2.542969 9.992188 2.480469 9.992188 L 1.300781 9.992188 C 1.253906 9.992188 1.175781 9.941406 1.148438 9.890625 L 0.0273438 8.046875 C -0.0195312 7.996094 -0.00390625 7.945312 0.0585938 7.945312 Z M 0.0585938 7.945312 "/>
<path fill-rule="nonzero" fill="rgb(30%,30%,30%)" fill-opacity="1" d="M 8.46875 1.957031 L 6.496094 1.957031 L 6.496094 0 L 3.996094 0 L 3.996094 1.957031 L 2.105469 1.957031 L 2.105469 4.453125 L 3.996094 4.453125 L 3.996094 6.363281 L 6.496094 6.363281 L 6.496094 4.453125 L 8.46875 4.453125 Z M 8.46875 1.957031 "/>
</svg>
