<?xml version="1.0" encoding="UTF-8" standalone="no"?>
<!-- Created with Inkscape (http://www.inkscape.org/) -->

<svg
   xmlns:dc="http://purl.org/dc/elements/1.1/"
   xmlns:cc="http://creativecommons.org/ns#"
   xmlns:rdf="http://www.w3.org/1999/02/22-rdf-syntax-ns#"
   xmlns:svg="http://www.w3.org/2000/svg"
   xmlns="http://www.w3.org/2000/svg"
   xmlns:xlink="http://www.w3.org/1999/xlink"
   xmlns:sodipodi="http://sodipodi.sourceforge.net/DTD/sodipodi-0.dtd"
   xmlns:inkscape="http://www.inkscape.org/namespaces/inkscape"
   width="30px"
   height="30px"
   version="1.1"
   id="svg8"
   inkscape:version="0.92.4 5da689c313, 2019-01-14"
   sodipodi:docname="container.svg">
  <defs
     id="defs2" />
  <sodipodi:namedview
     id="base"
     pagecolor="#ffffff"
     bordercolor="#666666"
     borderopacity="1.0"
     inkscape:pageopacity="0.0"
     inkscape:pageshadow="2"
     inkscape:zoom="13.049334"
     inkscape:cx="18.679046"
     inkscape:cy="12.165829"
     inkscape:document-units="px"
     inkscape:current-layer="layer1"
     showgrid="false"
     inkscape:snap-page="false"
     units="px"
     inkscape:window-width="1884"
     inkscape:window-height="1061"
     inkscape:window-x="0"
     inkscape:window-y="0"
     inkscape:window-maximized="1"
     fit-margin-top="0"
     fit-margin-left="0"
     fit-margin-right="0"
     fit-margin-bottom="0" />
  <metadata
     id="metadata5">
    <rdf:RDF>
      <cc:Work
         rdf:about="">
        <dc:format>image/svg+xml</dc:format>
        <dc:type
           rdf:resource="http://purl.org/dc/dcmitype/StillImage" />
        <dc:title></dc:title>
      </cc:Work>
    </rdf:RDF>
  </metadata>
    <circle
       style="color:#000000;clip-rule:nonzero;display:inline;overflow:visible;visibility:visible;opacity:1;isolation:auto;mix-blend-mode:normal;color-interpolation:sRGB;color-interpolation-filters:linearRGB;solid-color:#000000;solid-opacity:1;vector-effect:none;fill:#006660;fill-opacity:1;fill-rule:evenodd;stroke:#ffffff;stroke-width:1;stroke-linecap:butt;stroke-linejoin:miter;stroke-miterlimit:4;stroke-dasharray:none;stroke-dashoffset:0;stroke-opacity:1;marker:none;color-rendering:auto;image-rendering:auto;shape-rendering:auto;text-rendering:auto;enable-background:accumulate"
       id="path815"
       cx="15"
       cy="15"
       r="14.5" />
<g transform="translate(7.0,6.5)"><path fill-rule="evenodd" fill="#FFFFFF" fill-opacity="1" d="M 16.300781 13.0625 C 16.210938 12.78125 15.828125 12.625 15.402344 12.675781 C 15.289062 12.703125 15.152344 12.730469 15.042969 12.753906 C 14.503906 12.957031 11.757812 14.007812 11.734375 14.03125 L 11.667969 14.058594 L 11.710938 14.109375 C 12.027344 14.390625 12.183594 14.699219 12.09375 14.953125 C 12.003906 15.363281 11.554688 15.59375 10.835938 15.644531 C 10.160156 15.722656 9.351562 15.644531 8.382812 15.441406 C 8.472656 15.441406 8.609375 15.441406 8.722656 15.464844 C 9.417969 15.464844 10.070312 15.464844 10.589844 15.414062 C 11.375 15.335938 11.757812 15.132812 11.804688 14.800781 C 11.824219 14.570312 11.710938 14.390625 11.441406 14.238281 C 11.152344 14.058594 10.519531 13.980469 9.9375 13.855469 C 9.507812 13.777344 9.148438 13.726562 8.855469 13.648438 C 7.910156 13.367188 6.945312 13.085938 5.796875 13.1875 C 5.617188 13.214844 5.4375 13.214844 5.257812 13.265625 C 4.402344 13.445312 3.546875 13.675781 2.648438 13.957031 L 2.535156 13.980469 L 3.863281 16.128906 C 4.085938 16.078125 4.335938 16.027344 4.582031 16.003906 C 4.898438 15.976562 5.191406 15.976562 5.460938 16.027344 C 5.820312 16.105469 6.742188 16.308594 7.617188 16.515625 C 8.519531 16.742188 9.398438 16.921875 9.710938 16.972656 C 9.914062 17 10.09375 17 10.273438 17 C 10.722656 16.949219 11.171875 16.667969 11.601562 16.410156 C 11.734375 16.308594 11.871094 16.257812 12.003906 16.15625 L 15.917969 13.75 C 16.367188 13.445312 16.367188 13.1875 16.300781 13.0625 Z M 16.300781 13.0625 "/>
<path fill-rule="evenodd" fill="#FFFFFF" fill-opacity="1" d="M 0.0859375 13.828125 L 1.816406 13.828125 C 1.90625 13.828125 2.019531 13.90625 2.0625 13.980469 L 3.726562 16.71875 C 3.796875 16.796875 3.773438 16.871094 3.683594 16.871094 L 1.929688 16.871094 C 1.863281 16.871094 1.75 16.796875 1.703125 16.71875 L 0.0390625 13.980469 C -0.0273438 13.90625 -0.00390625 13.828125 0.0859375 13.828125 Z M 0.0859375 13.828125 "/>
<path fill-rule="evenodd" fill="#FFFFFF" fill-opacity="1" d="M 4.574219 5.21875 C 5.074219 5.242188 5.523438 5.714844 5.5 6.238281 C 5.453125 6.710938 5 7.136719 4.527344 7.113281 C 4.003906 7.089844 3.601562 6.664062 3.625 6.09375 C 3.671875 5.597656 4.078125 5.195312 4.574219 5.21875 Z M 4.574219 5.21875 "/>
<path fill-rule="evenodd" fill="#FFFFFF" fill-opacity="1" d="M 10.90625 1.304688 C 10.90625 2.015625 10.335938 2.5625 9.625 2.5625 C 8.890625 2.5625 8.320312 1.96875 8.34375 1.234375 C 8.367188 0.5 8.9375 -0.0234375 9.671875 0 C 10.359375 0 10.929688 0.59375 10.90625 1.304688 Z M 10.90625 1.304688 "/>
<path fill-rule="evenodd" fill="#FFFFFF" fill-opacity="1" d="M 7.964844 5.074219 C 7.847656 5.242188 7.726562 5.40625 7.65625 5.574219 C 7.207031 6.5 6.496094 7.234375 5.785156 7.945312 C 5.570312 8.15625 5.5 8.347656 5.5 8.632812 L 5.5 12.378906 C 5.5 12.640625 5.523438 12.925781 5.167969 12.949219 C 4.8125 12.949219 4.71875 12.710938 4.738281 12.402344 C 4.738281 11.785156 4.765625 11.171875 4.738281 10.554688 C 4.738281 10.410156 4.835938 10.101562 4.550781 10.101562 C 4.289062 10.101562 4.382812 10.363281 4.382812 10.53125 C 4.359375 11.121094 4.382812 11.738281 4.382812 12.308594 C 4.382812 12.617188 4.40625 12.949219 3.980469 12.949219 C 3.578125 12.925781 3.625 12.617188 3.625 12.355469 L 3.625 8.941406 C 3.625 8.75 3.695312 8.5625 3.386719 8.230469 C 3.386719 8.773438 3.414062 9.179688 3.386719 9.558594 C 3.386719 9.792969 3.4375 10.054688 3.082031 10.054688 C 2.773438 10.054688 2.796875 9.792969 2.796875 9.582031 C 2.796875 9.15625 2.796875 8.703125 2.820312 8.253906 C 2.820312 7.777344 3.058594 7.519531 3.554688 7.542969 C 3.957031 7.566406 4.382812 7.542969 4.765625 7.542969 C 5.5 7.542969 5.785156 7.28125 6.117188 6.617188 C 6.730469 5.40625 7.417969 4.246094 8.25 3.15625 C 8.488281 2.847656 8.796875 2.632812 9.222656 3.011719 C 9.460938 3.226562 9.839844 3.203125 10.074219 2.988281 C 10.40625 2.679688 10.644531 2.824219 10.90625 3.058594 C 11.261719 3.390625 11.5 3.820312 11.734375 4.222656 C 12.140625 4.863281 12.519531 5.503906 12.921875 6.144531 C 13.109375 6.449219 13.347656 6.808594 12.921875 7.042969 C 12.566406 7.28125 12.398438 6.855469 12.257812 6.617188 C 11.925781 6.09375 11.617188 5.574219 11.191406 5.097656 C 11.425781 5.90625 11.6875 6.734375 11.925781 7.566406 C 12.140625 8.300781 12.042969 8.46875 11.261719 8.441406 C 10.859375 8.417969 10.785156 8.585938 10.785156 8.941406 C 10.8125 9.984375 10.785156 11.050781 10.8125 12.117188 C 10.8125 12.496094 10.8125 12.925781 10.3125 12.925781 C 9.839844 12.925781 9.863281 12.496094 9.863281 12.140625 C 9.863281 11.097656 9.863281 10.078125 9.839844 9.035156 C 9.839844 8.847656 10.003906 8.492188 9.648438 8.46875 C 9.246094 8.46875 9.410156 8.824219 9.410156 9.011719 L 9.410156 12.238281 C 9.410156 12.546875 9.363281 12.851562 9.03125 12.925781 C 8.582031 13.019531 8.464844 12.664062 8.464844 12.308594 C 8.464844 11.21875 8.441406 10.125 8.464844 9.011719 C 8.488281 8.585938 8.367188 8.417969 7.894531 8.441406 C 7.253906 8.46875 7.136719 8.277344 7.300781 7.683594 C 7.539062 6.832031 7.800781 6 8.035156 5.148438 C 8.011719 5.125 7.988281 5.125 7.964844 5.074219 Z M 7.964844 5.074219 "/>
</g>
</svg>
